<svg width="200" viewBox="0 0 200 153" xmlns="http://www.w3.org/2000/svg" xmlns:xlink="http://www.w3.org/1999/xlink" height="153">
    <defs/>
    <g id="group1" transform="translate(1.00,1.00)">
        <path id="shape2" fill-rule="nonzero" d="M176.0,72.6L176.0,35.2L173.9,8.1C175.1,7.3,176.0,6.0,176.0,4.4C176.0,2.0,174.0,.0,171.6,.0C169.2,.0,167.2,2.0,167.2,4.4C167.2,6.0,168.0,7.3,169.3,8.1L167.2,35.2L167.2,72.6L30.8,72.6L30.8,35.2L28.7,8.1C30.0,7.3,30.8,6.0,30.8,4.4C30.8,2.0,28.8,.0,26.4,.0C24.0,.0,22.0,2.0,22.0,4.4C22.0,6.0,22.8,7.3,24.1,8.1L22.0,35.2L22.0,72.6L.0,72.6L.0,120.9L197.9,120.9L197.9,72.6L176.0,72.6zM195.7,118.7L2.2,118.7L2.2,74.8L195.7,74.8L195.7,118.7z" fill="#000000" transform="translate(0.00,30.07)"/>
        <path id="shape3" fill-rule="nonzero" d="M.0,.0L.0,39.6L189.1,39.6L189.1,.0L.0,.0zM17.9,28.5C16.8,28.8,15.7,28.2,15.4,27.1L11.1,11.4C10.8,10.3,11.4,9.2,12.5,8.9C13.6,8.6,14.7,9.2,15.0,10.3L19.3,26.0C19.6,27.1,19.0,28.2,17.9,28.5L17.9,28.5zM24.1,28.5C23.0,28.8,21.9,28.2,21.6,27.1L17.3,11.4C17.0,10.3,17.6,9.2,18.7,8.9C19.8,8.6,20.9,9.2,21.2,10.3L25.5,26.0C25.8,27.1,25.2,28.2,24.1,28.5L24.1,28.5zM30.2,28.5C29.1,28.8,28.0,28.2,27.7,27.1L23.4,11.4C23.1,10.3,23.8,9.2,24.8,8.9C25.9,8.6,27.0,9.2,27.3,10.3L31.6,26.0C31.9,27.1,31.3,28.2,30.2,28.5L30.2,28.5zM36.3,28.5C35.2,28.8,34.1,28.2,33.8,27.1L29.5,11.4C29.2,10.3,29.9,9.2,30.9,8.9C32.0,8.6,33.1,9.2,33.4,10.3L37.7,26.0C38.0,27.1,37.4,28.2,36.3,28.5L36.3,28.5zM42.4,28.5C41.3,28.8,40.2,28.2,39.9,27.1L35.6,11.4C35.3,10.3,36.0,9.2,37.1,8.9C38.1,8.6,39.3,9.2,39.6,10.3L43.8,26.0C44.1,27.1,43.5,28.2,42.4,28.5L42.4,28.5zM138.5,28.6L127.5,28.6L127.5,26.4L138.5,26.4L138.5,28.6zM133.0,19.8C130.0,19.8,127.5,17.3,127.5,14.3C127.5,11.3,130.0,8.8,133.0,8.8C136.1,8.8,138.5,11.3,138.5,14.3C138.5,17.3,136.1,19.8,133.0,19.8zM158.3,28.6L147.3,28.6L147.3,26.4L158.3,26.4L158.3,28.6zM152.8,19.8C149.8,19.8,147.3,17.3,147.3,14.3C147.3,11.3,149.8,8.8,152.8,8.8C155.8,8.8,158.3,11.3,158.3,14.3C158.3,17.3,155.8,19.8,152.8,19.8zM178.1,28.6L167.1,28.6L167.1,26.4L178.1,26.4L178.1,28.6zM172.6,19.8C169.6,19.8,167.1,17.3,167.1,14.3C167.1,11.3,169.6,8.8,172.6,8.8C175.6,8.8,178.1,11.3,178.1,14.3C178.1,17.3,175.6,19.8,172.6,19.8z" fill="#000000" transform="translate(4.40,107.03)"/>
        <path id="shape4" fill-rule="nonzero" d="M.0,2.9L3.3,7.0C4.6,5.9,6.3,5.2,8.2,5.2C10.0,5.2,11.7,5.9,13.1,7.0L16.3,2.9C14.1,1.1,11.3,.0,8.2,.0C5.1,.0,2.2,1.1,.0,2.9L.0,2.9z" fill="#000000" transform="translate(18.25,20.89)"/>
        <path id="shape5" fill-rule="nonzero" d="M.0,5.2L3.3,9.3C6.4,6.8,10.4,5.2,14.7,5.2C19.1,5.2,23.1,6.7,26.2,9.3L29.5,5.2C25.5,2.0,20.3,.0,14.7,.0C9.2,.0,4.0,2.0,.0,5.2L.0,5.2z" fill="#000000" transform="translate(11.66,10.45)"/>
        <path id="shape6" fill-rule="nonzero" d="M21.3,.0C13.2,.0,5.8,2.8,.0,7.6L3.3,11.6C8.2,7.6,14.5,5.2,21.3,5.2C28.1,5.2,34.4,7.6,39.3,11.6L42.6,7.6C36.8,2.8,29.4,.0,21.3,.0L21.3,.0z" fill="#000000" transform="translate(5.11,-0.00)"/>
        <path id="shape7" fill-rule="nonzero" d="M.0,2.9L3.3,7.0C4.6,5.9,6.3,5.2,8.2,5.2C10.0,5.2,11.7,5.9,13.1,7.0L16.3,2.9C14.1,1.1,11.3,.0,8.2,.0C5.1,.0,2.2,1.1,.0,2.9L.0,2.9z" fill="#000000" transform="translate(163.42,20.89)"/>
        <path id="shape8" fill-rule="nonzero" d="M.0,5.2L3.3,9.3C6.4,6.8,10.4,5.2,14.7,5.2C19.1,5.2,23.1,6.7,26.2,9.3L29.5,5.2C25.5,2.0,20.3,.0,14.7,.0C9.2,.0,4.0,2.0,.0,5.2L.0,5.2z" fill="#000000" transform="translate(156.83,10.45)"/>
        <path id="shape9" fill-rule="nonzero" d="M21.3,.0C13.2,.0,5.8,2.8,.0,7.6L3.3,11.6C8.2,7.6,14.5,5.2,21.3,5.2C28.1,5.2,34.4,7.6,39.3,11.6L42.6,7.6C36.8,2.8,29.4,.0,21.3,.0L21.3,.0z" fill="#000000" transform="translate(150.28,-0.00)"/>
    </g>
</svg>
