<svg width="278" viewBox="0 0 278 255.596" xmlns="http://www.w3.org/2000/svg" xmlns:xlink="http://www.w3.org/1999/xlink" height="256">
    <defs/>
    <g id="group1" transform="translate(1.00,1.00)">
        <path id="shape2" fill-rule="nonzero" d="M4.7,108.4L53.7,108.4C56.6,108.4,58.4,106.5,58.4,103.7L58.4,4.7C58.4,1.9,56.6,.0,53.7,.0L4.7,.0C1.9,.0,.0,1.9,.0,4.7L.0,103.7C.0,106.1,2.4,108.4,4.7,108.4zM49.0,99.0L9.4,99.0L9.4,58.9L49.0,58.9L49.0,99.0zM9.4,9.0L49.0,9.0L49.0,49.0L9.4,49.0L9.4,9.0z" fill="#000000" transform="translate(4.24,126.33)"/>
        <path id="shape3" fill-rule="nonzero" d="M270.6,206.5L247.5,206.5L247.5,46.2L270.6,46.2C273.4,46.2,275.3,44.3,275.3,41.5C275.3,38.7,273.4,36.8,270.6,36.8L107.5,36.8C104.6,36.8,102.8,38.7,102.8,41.5C102.8,44.3,104.6,46.2,107.5,46.2L141.4,46.2L100.4,112.2C99.9,113.1,99.5,113.6,99.5,114.5L99.5,176.3L78.7,176.3L78.7,4.7C78.7,1.9,76.8,.0,74.0,.0C71.2,.0,69.3,1.9,69.3,4.7L69.3,240.9L4.7,240.9C1.9,240.9,.0,242.8,.0,245.6C.0,248.4,1.9,250.3,4.7,250.3L74.0,250.3C76.8,250.3,78.7,248.4,78.7,245.6L78.7,185.7L99.5,185.7L99.5,206.5L90.0,206.5C87.2,206.5,85.3,208.3,85.3,211.2C85.3,214.0,87.2,215.9,90.0,215.9L110.3,215.9C107.5,219.7,105.6,224.8,105.6,230.0C105.6,243.2,116.0,253.6,129.2,253.6C142.4,253.6,152.7,243.2,152.7,230.0C152.7,224.8,150.8,219.7,148.0,215.9L200.8,215.9C198.0,219.7,196.1,224.8,196.1,230.0C196.1,243.2,206.5,253.6,219.7,253.6C232.9,253.6,243.2,243.2,243.2,230.0C243.2,224.8,241.3,219.7,238.5,215.9L271.0,215.9C273.9,215.9,275.8,214.0,275.8,211.2C275.8,208.3,272.9,206.5,270.6,206.5L270.6,206.5zM108.9,148.0L128.7,148.0C130.1,148.0,131.5,147.5,132.5,146.6L145.6,131.0C147.5,129.2,147.1,126.3,145.2,124.4C143.3,122.6,140.5,123.0,138.6,124.9L126.8,138.6L108.9,138.6L108.9,116.0L152.3,46.2L238.0,46.2L238.0,170.6L187.6,170.6C184.8,170.6,182.9,172.5,182.9,175.3L182.9,206.5L108.9,206.5L108.9,148.0zM142.8,230.0C142.8,238.0,136.7,244.2,128.7,244.2C120.7,244.2,114.5,238.0,114.5,230.0C114.5,222.0,120.7,215.9,128.7,215.9C136.7,215.9,142.8,222.0,142.8,230.0zM192.3,180.1L237.6,180.1L237.6,206.5L192.3,206.5L192.3,180.1zM233.3,230.0C233.3,238.0,227.2,244.2,219.2,244.2C211.2,244.2,205.0,238.0,205.0,230.0C205.0,222.0,211.2,215.9,219.2,215.9C227.2,215.9,233.3,222.0,233.3,230.0z" fill="#000000"/>
        <path id="shape4" fill-rule="nonzero" d="M4.3,112.7L24.6,112.7C27.4,112.7,29.3,110.8,29.3,107.9L29.3,80.6L51.9,80.6C54.7,80.6,56.6,78.7,56.6,75.9L56.6,4.7C56.6,1.9,54.7,.0,51.9,.0L26.9,.0C24.1,.0,22.2,1.9,22.2,4.7L22.2,46.2L4.8,46.2C2.0,46.2,.1,48.1,.1,50.9L.1,107.9C-0.4,110.3,1.5,112.7,4.3,112.7L4.3,112.7zM9.0,55.6L26.5,55.6C29.3,55.6,31.2,53.7,31.2,50.9L31.2,9.9L46.7,9.9L46.7,71.6L24.1,71.6C21.3,71.6,19.4,73.5,19.4,76.4L19.4,103.7L8.6,103.7L8.6,55.6L9.0,55.6z" fill="#000000" transform="translate(148.40,85.32)"/>
        <path id="shape5" fill-rule="nonzero" d="M18.4,36.8C28.3,36.8,36.8,28.8,36.8,18.4C36.8,8.0,28.8,.0,18.4,.0C8.0,.0,.0,8.0,.0,18.4C.0,28.8,8.5,36.8,18.4,36.8zM18.4,9.9C23.1,9.9,27.3,13.7,27.3,18.9C27.3,24.0,23.6,27.8,18.4,27.8C13.2,27.8,9.4,24.0,9.4,18.9C9.4,13.7,13.7,9.9,18.4,9.9z" fill="#000000" transform="translate(169.22,47.14)"/>
    </g>
</svg>
